<?xml version="1.0" encoding="UTF-8" standalone="no"?>
<!DOCTYPE svg PUBLIC "-//W3C//DTD SVG 1.1//EN" "http://www.w3.org/Graphics/SVG/1.1/DTD/svg11.dtd"
[
<!ATTLIST g
  xmlns:vectornator CDATA #FIXED "http://vectornator.io"
  vectornator:layerName CDATA #IMPLIED >
<!ATTLIST g
  xmlns:vectornator CDATA #FIXED "http://vectornator.io"
  vectornator:mask CDATA #IMPLIED >
<!ATTLIST text
  xmlns:vectornator CDATA #FIXED "http://vectornator.io"
  vectornator:width CDATA #IMPLIED >
<!ATTLIST text
  xmlns:vectornator CDATA #FIXED "http://vectornator.io"
  vectornator:text CDATA #IMPLIED >

<!ATTLIST path
  xmlns:vectornator CDATA #FIXED "http://vectornator.io"
  vectornator:blendMode CDATA #IMPLIED >
<!ATTLIST path
  xmlns:vectornator CDATA #FIXED "http://vectornator.io"
  vectornator:shadowColor CDATA #IMPLIED >
<!ATTLIST path
  xmlns:vectornator CDATA #FIXED "http://vectornator.io"
  vectornator:shadowOpacity CDATA #IMPLIED >
<!ATTLIST path
  xmlns:vectornator CDATA #FIXED "http://vectornator.io"
  vectornator:shadowRadius CDATA #IMPLIED >
<!ATTLIST path
  xmlns:vectornator CDATA #FIXED "http://vectornator.io"
  vectornator:shadowOffset CDATA #IMPLIED >
<!ATTLIST path
  xmlns:vectornator CDATA #FIXED "http://vectornator.io"
  vectornator:shadowAngle CDATA #IMPLIED >

<!ATTLIST image
  xmlns:vectornator CDATA #FIXED "http://vectornator.io"
  vectornator:blendMode CDATA #IMPLIED >
<!ATTLIST image
  xmlns:vectornator CDATA #FIXED "http://vectornator.io"
  vectornator:shadowColor CDATA #IMPLIED >
<!ATTLIST image
  xmlns:vectornator CDATA #FIXED "http://vectornator.io"
  vectornator:shadowOpacity CDATA #IMPLIED >
<!ATTLIST image
  xmlns:vectornator CDATA #FIXED "http://vectornator.io"
  vectornator:shadowRadius CDATA #IMPLIED >
<!ATTLIST image
  xmlns:vectornator CDATA #FIXED "http://vectornator.io"
  vectornator:shadowOffset CDATA #IMPLIED >
<!ATTLIST image
  xmlns:vectornator CDATA #FIXED "http://vectornator.io"
  vectornator:shadowAngle CDATA #IMPLIED >

<!ATTLIST g
  xmlns:vectornator CDATA #FIXED "http://vectornator.io"
  vectornator:blendMode CDATA #IMPLIED >
<!ATTLIST g
  xmlns:vectornator CDATA #FIXED "http://vectornator.io"
  vectornator:shadowColor CDATA #IMPLIED >
<!ATTLIST g
  xmlns:vectornator CDATA #FIXED "http://vectornator.io"
  vectornator:shadowOpacity CDATA #IMPLIED >
<!ATTLIST g
  xmlns:vectornator CDATA #FIXED "http://vectornator.io"
  vectornator:shadowRadius CDATA #IMPLIED >
<!ATTLIST g
  xmlns:vectornator CDATA #FIXED "http://vectornator.io"
  vectornator:shadowOffset CDATA #IMPLIED >
<!ATTLIST g
  xmlns:vectornator CDATA #FIXED "http://vectornator.io"
  vectornator:shadowAngle CDATA #IMPLIED >

<!ENTITY % SVG.filter.extra.content  "| feDropShadow" >
<!ELEMENT feDropShadow EMPTY>
<!ATTLIST feDropShadow
  xmlns:svg CDATA #FIXED "http://www.w3.org/Graphics/SVG/1.1/DTD/svg11.dtd"
  dx CDATA #IMPLIED>
<!ATTLIST feDropShadow
  xmlns:svg CDATA #FIXED "http://www.w3.org/Graphics/SVG/1.1/DTD/svg11.dtd"
  dy CDATA #IMPLIED>
<!ATTLIST feDropShadow
  xmlns:svg CDATA #FIXED "http://www.w3.org/Graphics/SVG/1.1/DTD/svg11.dtd"
  stdDeviation CDATA #IMPLIED>
<!ATTLIST feDropShadow
  xmlns:svg CDATA #FIXED "http://www.w3.org/Graphics/SVG/1.1/DTD/svg11.dtd"
  flood-opacity CDATA #IMPLIED>
<!ATTLIST feDropShadow
  xmlns:svg CDATA #FIXED "http://www.w3.org/Graphics/SVG/1.1/DTD/svg11.dtd"
  in CDATA #IMPLIED>
<!ATTLIST feDropShadow
  xmlns:svg CDATA #FIXED "http://www.w3.org/Graphics/SVG/1.1/DTD/svg11.dtd"
  result CDATA #IMPLIED>
<!ATTLIST feDropShadow
  xmlns:svg CDATA #FIXED "http://www.w3.org/Graphics/SVG/1.1/DTD/svg11.dtd"
  flood-color CDATA #IMPLIED>
]
>
<!-- Created with Vectornator (http://vectornator.io/) -->
<svg height="100%" stroke-miterlimit="10" style="fill-rule:nonzero;clip-rule:evenodd;stroke-linecap:round;stroke-linejoin:round;" version="1.1" viewBox="0 0 2310.53 708.75" width="100%" xml:space="preserve" xmlns="http://www.w3.org/2000/svg" xmlns:vectornator="http://vectornator.io" xmlns:xlink="http://www.w3.org/1999/xlink">
<defs>
<clipPath id="TextBounds">
<rect height="707.894" width="2311.27" x="319.661" y="1238.44"/>
</clipPath>
<clipPath id="TextBounds_2">
<rect height="225.267" width="2315.92" x="-8.66515" y="528.943"/>
</clipPath>
<clipPath id="TextBounds_3">
<rect height="3.65792" width="33.5" x="467.757" y="1682.28"/>
</clipPath>
<clipPath id="TextBounds_4">
<rect height="18.9696" width="53.6041" x="1897.13" y="1808.98"/>
</clipPath>
<clipPath id="TextBounds_5">
<rect height="1.71584" width="85.0535" x="2367.44" y="-364.252"/>
</clipPath>
<clipPath id="TextBounds_6">
<rect height="23.8082" width="78.3509" x="850.542" y="254.549"/>
</clipPath>
<clipPath id="TextBounds_7">
<rect height="524.129" width="2308.19" x="31.3169" y="65.0013"/>
</clipPath>
</defs>
<clipPath id="ArtboardFrame">
<rect height="708.75" width="2310.53" x="0" y="0"/>
</clipPath>
<g clip-path="url(#ArtboardFrame)" id="Layer-1" vectornator:layerName="Layer 1">
<g fill="#4d465a" opacity="1" stroke="none"/>
<g fill="#474747" opacity="1" stroke="none">
<path clip-path="url(#TextBounds_2)" d="M188.378 573.644C192.683 573.644 196.855 574.654 200.895 576.674C204.936 578.695 208.013 581.309 210.128 584.519C212.167 587.578 213.526 591.146 214.206 595.224C214.81 598.018 215.112 602.474 215.112 608.591L170.649 608.591C170.838 614.746 172.292 619.683 175.011 623.403C177.729 627.122 181.94 628.982 187.642 628.982C192.966 628.982 197.214 627.226 200.386 623.714C202.198 621.675 203.482 619.315 204.237 616.634L214.263 616.634C213.998 618.862 213.12 621.345 211.629 624.083C210.137 626.82 208.466 629.058 206.616 630.794C203.52 633.815 199.687 635.854 195.118 636.912C192.664 637.516 189.888 637.818 186.792 637.818C179.24 637.818 172.839 635.071 167.591 629.577C162.342 624.083 159.718 616.389 159.718 606.496C159.718 596.753 162.361 588.843 167.647 582.763C172.934 576.684 179.844 573.644 188.378 573.644ZM204.634 600.492C204.218 596.074 203.255 592.543 201.745 589.9C198.951 584.991 194.287 582.537 187.755 582.537C183.073 582.537 179.145 584.226 175.974 587.606C172.802 590.986 171.121 595.281 170.933 600.492L204.634 600.492Z" fill-rule="evenodd"/>
<path clip-path="url(#TextBounds_2)" d="M261.101 575.003L270.786 575.003L270.786 583.613C273.656 580.063 276.696 577.515 279.906 575.966C283.115 574.418 286.684 573.644 290.611 573.644C299.22 573.644 305.035 576.646 308.056 582.65C309.717 585.935 310.548 590.636 310.548 596.753L310.548 635.666L300.183 635.666L300.183 597.433C300.183 593.733 299.635 590.75 298.54 588.484C296.728 584.708 293.443 582.82 288.685 582.82C286.268 582.82 284.286 583.065 282.738 583.556C279.943 584.387 277.489 586.048 275.374 588.541C273.675 590.542 272.571 592.609 272.061 594.743C271.551 596.876 271.296 599.925 271.296 603.89L271.296 635.666L261.101 635.666L261.101 575.003Z" fill-rule="evenodd"/>
<path clip-path="url(#TextBounds_2)" d="M380.496 573.927C385.254 573.927 389.407 575.098 392.957 577.439C394.882 578.761 396.846 580.686 398.847 583.216L398.847 575.57L408.25 575.57L408.25 630.738C408.25 638.441 407.117 644.52 404.851 648.976C400.622 657.208 392.636 661.324 380.892 661.324C374.36 661.324 368.866 659.861 364.41 656.934C359.954 654.008 357.462 649.429 356.933 643.199L367.299 643.199C367.789 645.918 368.771 648.013 370.244 649.486C372.547 651.752 376.172 652.884 381.119 652.884C388.935 652.884 394.052 650.128 396.468 644.615C397.903 641.367 398.564 635.571 398.451 627.226C396.412 630.322 393.957 632.626 391.088 634.136C388.218 635.647 384.423 636.402 379.703 636.402C373.132 636.402 367.383 634.07 362.456 629.407C357.528 624.743 355.064 617.031 355.064 606.269C355.064 596.112 357.547 588.182 362.512 582.48C367.478 576.778 373.472 573.927 380.496 573.927ZM398.847 605.08C398.847 597.565 397.299 591.996 394.203 588.371C391.106 584.746 387.16 582.933 382.365 582.933C375.19 582.933 370.282 586.294 367.638 593.015C366.241 596.602 365.543 601.304 365.543 607.119C365.543 613.953 366.93 619.155 369.706 622.723C372.481 626.292 376.21 628.076 380.892 628.076C388.218 628.076 393.372 624.772 396.355 618.164C398.017 614.425 398.847 610.064 398.847 605.08Z" fill-rule="evenodd"/>
<path clip-path="url(#TextBounds_2)" d="M457.07 575.287L467.436 575.287L467.436 635.666L457.07 635.666L457.07 575.287ZM457.07 552.461L467.436 552.461L467.436 564.015L457.07 564.015L457.07 552.461Z" fill-rule="evenodd"/>
<path clip-path="url(#TextBounds_2)" d="M516.313 575.003L525.998 575.003L525.998 583.613C528.868 580.063 531.908 577.515 535.118 575.966C538.327 574.418 541.896 573.644 545.823 573.644C554.432 573.644 560.247 576.646 563.268 582.65C564.929 585.935 565.76 590.636 565.76 596.753L565.76 635.666L555.395 635.666L555.395 597.433C555.395 593.733 554.847 590.75 553.752 588.484C551.94 584.708 548.655 582.82 543.897 582.82C541.48 582.82 539.498 583.065 537.95 583.556C535.155 584.387 532.701 586.048 530.586 588.541C528.887 590.542 527.783 592.609 527.273 594.743C526.763 596.876 526.508 599.925 526.508 603.89L526.508 635.666L516.313 635.666L516.313 575.003Z" fill-rule="evenodd"/>
<path clip-path="url(#TextBounds_2)" d="M639.559 573.644C643.864 573.644 648.037 574.654 652.077 576.674C656.117 578.695 659.195 581.309 661.309 584.519C663.348 587.578 664.708 591.146 665.388 595.224C665.992 598.018 666.294 602.474 666.294 608.591L621.831 608.591C622.02 614.746 623.473 619.683 626.192 623.403C628.911 627.122 633.121 628.982 638.823 628.982C644.147 628.982 648.395 627.226 651.567 623.714C653.38 621.675 654.664 619.315 655.419 616.634L665.444 616.634C665.18 618.862 664.302 621.345 662.81 624.083C661.319 626.82 659.648 629.058 657.798 630.794C654.701 633.815 650.869 635.854 646.3 636.912C643.845 637.516 641.07 637.818 637.973 637.818C630.421 637.818 624.021 635.071 618.772 629.577C613.524 624.083 610.899 616.389 610.899 606.496C610.899 596.753 613.542 588.843 618.829 582.763C624.115 576.684 631.026 573.644 639.559 573.644ZM655.815 600.492C655.4 596.074 654.437 592.543 652.927 589.9C650.132 584.991 645.469 582.537 638.936 582.537C634.254 582.537 630.327 584.226 627.155 587.606C623.983 590.986 622.303 595.281 622.114 600.492L655.815 600.492Z" fill-rule="evenodd"/>
<path clip-path="url(#TextBounds_2)" d="M737.544 573.644C741.849 573.644 746.021 574.654 750.062 576.674C754.102 578.695 757.18 581.309 759.294 584.519C761.333 587.578 762.693 591.146 763.372 595.224C763.976 598.018 764.278 602.474 764.278 608.591L719.816 608.591C720.004 614.746 721.458 619.683 724.177 623.403C726.896 627.122 731.106 628.982 736.808 628.982C742.132 628.982 746.38 627.226 749.552 623.714C751.364 621.675 752.648 619.315 753.403 616.634L763.429 616.634C763.165 618.862 762.287 621.345 760.795 624.083C759.304 626.82 757.633 629.058 755.782 630.794C752.686 633.815 748.853 635.854 744.284 636.912C741.83 637.516 739.055 637.818 735.958 637.818C728.406 637.818 722.006 635.071 716.757 629.577C711.508 624.083 708.884 616.389 708.884 606.496C708.884 596.753 711.527 588.843 716.814 582.763C722.1 576.684 729.01 573.644 737.544 573.644ZM753.8 600.492C753.385 596.074 752.422 592.543 750.911 589.9C748.117 584.991 743.454 582.537 736.921 582.537C732.239 582.537 728.312 584.226 725.14 587.606C721.968 590.986 720.288 595.281 720.099 600.492L753.8 600.492Z" fill-rule="evenodd"/>
<path clip-path="url(#TextBounds_2)" d="M810.55 575.003L820.236 575.003L820.236 585.482C821.029 583.443 822.974 580.96 826.07 578.034C829.166 575.107 832.735 573.644 836.775 573.644C836.964 573.644 837.285 573.663 837.738 573.701C838.191 573.739 838.965 573.814 840.06 573.927L840.06 584.689C839.456 584.576 838.899 584.5 838.389 584.462C837.879 584.425 837.322 584.406 836.718 584.406C831.583 584.406 827.637 586.058 824.88 589.362C822.124 592.666 820.746 596.47 820.746 600.775L820.746 635.666L810.55 635.666L810.55 575.003Z" fill-rule="evenodd"/>
<path clip-path="url(#TextBounds_2)" d="M882.367 575.287L892.732 575.287L892.732 635.666L882.367 635.666L882.367 575.287ZM882.367 552.461L892.732 552.461L892.732 564.015L882.367 564.015L882.367 552.461Z" fill-rule="evenodd"/>
<path clip-path="url(#TextBounds_2)" d="M941.61 575.003L951.295 575.003L951.295 583.613C954.165 580.063 957.205 577.515 960.414 575.966C963.624 574.418 967.192 573.644 971.119 573.644C979.729 573.644 985.544 576.646 988.565 582.65C990.226 585.935 991.057 590.636 991.057 596.753L991.057 635.666L980.692 635.666L980.692 597.433C980.692 593.733 980.144 590.75 979.049 588.484C977.237 584.708 973.951 582.82 969.194 582.82C966.777 582.82 964.795 583.065 963.246 583.556C960.452 584.387 957.998 586.048 955.883 588.541C954.184 590.542 953.079 592.609 952.57 594.743C952.06 596.876 951.805 599.925 951.805 603.89L951.805 635.666L941.61 635.666L941.61 575.003Z" fill-rule="evenodd"/>
<path clip-path="url(#TextBounds_2)" d="M1061 573.927C1065.76 573.927 1069.92 575.098 1073.47 577.439C1075.39 578.761 1077.35 580.686 1079.36 583.216L1079.36 575.57L1088.76 575.57L1088.76 630.738C1088.76 638.441 1087.63 644.52 1085.36 648.976C1081.13 657.208 1073.14 661.324 1061.4 661.324C1054.87 661.324 1049.37 659.861 1044.92 656.934C1040.46 654.008 1037.97 649.429 1037.44 643.199L1047.81 643.199C1048.3 645.918 1049.28 648.013 1050.75 649.486C1053.06 651.752 1056.68 652.884 1061.63 652.884C1069.44 652.884 1074.56 650.128 1076.98 644.615C1078.41 641.367 1079.07 635.571 1078.96 627.226C1076.92 630.322 1074.47 632.626 1071.6 634.136C1068.73 635.647 1064.93 636.402 1060.21 636.402C1053.64 636.402 1047.89 634.07 1042.96 629.407C1038.04 624.743 1035.57 617.031 1035.57 606.269C1035.57 596.112 1038.06 588.182 1043.02 582.48C1047.99 576.778 1053.98 573.927 1061 573.927ZM1079.36 605.08C1079.36 597.565 1077.81 591.996 1074.71 588.371C1071.62 584.746 1067.67 582.933 1062.87 582.933C1055.7 582.933 1050.79 586.294 1048.15 593.015C1046.75 596.602 1046.05 601.304 1046.05 607.119C1046.05 613.953 1047.44 619.155 1050.21 622.723C1052.99 626.292 1056.72 628.076 1061.4 628.076C1068.73 628.076 1073.88 624.772 1076.86 618.164C1078.53 614.425 1079.36 610.064 1079.36 605.08Z" fill-rule="evenodd"/>
<path clip-path="url(#TextBounds_2)" d="M1227.35 629.095C1234.11 629.095 1238.75 626.537 1241.26 621.42C1243.77 616.304 1245.02 610.612 1245.02 604.343C1245.02 598.679 1244.12 594.072 1242.3 590.523C1239.43 584.934 1234.49 582.14 1227.46 582.14C1221.23 582.14 1216.7 584.519 1213.87 589.277C1211.04 594.035 1209.62 599.774 1209.62 606.496C1209.62 612.953 1211.04 618.334 1213.87 622.638C1216.7 626.943 1221.2 629.095 1227.35 629.095ZM1227.75 573.248C1235.56 573.248 1242.17 575.853 1247.57 581.064C1252.97 586.275 1255.67 593.94 1255.67 604.06C1255.67 613.84 1253.29 621.921 1248.53 628.302C1243.78 634.684 1236.39 637.875 1226.39 637.875C1218.04 637.875 1211.42 635.052 1206.51 629.407C1201.6 623.762 1199.14 616.181 1199.14 606.666C1199.14 596.47 1201.73 588.352 1206.9 582.31C1212.08 576.268 1219.02 573.248 1227.75 573.248Z" fill-rule="evenodd"/>
<path clip-path="url(#TextBounds_2)" d="M1303.81 565.771C1303.96 561.542 1304.7 558.446 1306.02 556.482C1308.4 553.008 1312.99 551.271 1319.78 551.271C1320.43 551.271 1321.09 551.29 1321.77 551.328C1322.45 551.365 1323.22 551.422 1324.09 551.498L1324.09 560.787C1323.03 560.711 1322.27 560.664 1321.8 560.645C1321.32 560.626 1320.88 560.617 1320.46 560.617C1317.37 560.617 1315.52 561.419 1314.91 563.024C1314.31 564.629 1314.01 568.716 1314.01 575.287L1324.09 575.287L1324.09 583.33L1313.89 583.33L1313.89 635.666L1303.81 635.666L1303.81 583.33L1295.37 583.33L1295.37 575.287L1303.81 575.287L1303.81 565.771Z" fill-rule="evenodd"/>
<path clip-path="url(#TextBounds_2)" d="M1438.72 616.634C1439.03 620.033 1439.87 622.638 1441.27 624.451C1443.84 627.736 1448.3 629.378 1454.64 629.378C1458.42 629.378 1461.74 628.557 1464.61 626.915C1467.48 625.272 1468.91 622.733 1468.91 619.296C1468.91 616.691 1467.76 614.709 1465.46 613.349C1463.98 612.518 1461.08 611.556 1456.73 610.461L1448.64 608.421C1443.46 607.138 1439.65 605.703 1437.19 604.117C1432.81 601.36 1430.62 597.546 1430.62 592.675C1430.62 586.936 1432.69 582.291 1436.83 578.742C1440.96 575.192 1446.52 573.418 1453.51 573.418C1462.64 573.418 1469.23 576.099 1473.27 581.461C1475.8 584.859 1477.03 588.522 1476.96 592.449L1467.33 592.449C1467.14 590.145 1466.33 588.05 1464.89 586.162C1462.55 583.481 1458.49 582.14 1452.71 582.14C1448.86 582.14 1445.94 582.877 1443.96 584.349C1441.98 585.822 1440.99 587.766 1440.99 590.183C1440.99 592.826 1442.29 594.941 1444.9 596.527C1446.41 597.471 1448.64 598.302 1451.58 599.019L1458.32 600.662C1465.65 602.436 1470.56 604.155 1473.05 605.816C1477.01 608.421 1478.99 612.518 1478.99 618.107C1478.99 623.507 1476.95 628.17 1472.85 632.097C1468.75 636.024 1462.51 637.988 1454.13 637.988C1445.1 637.988 1438.71 635.939 1434.96 631.842C1431.2 627.745 1429.19 622.676 1428.92 616.634L1438.72 616.634Z" fill-rule="evenodd"/>
<path clip-path="url(#TextBounds_2)" d="M1548.21 629.095C1554.97 629.095 1559.6 626.537 1562.11 621.42C1564.62 616.304 1565.88 610.612 1565.88 604.343C1565.88 598.679 1564.97 594.072 1563.16 590.523C1560.29 584.934 1555.34 582.14 1548.32 582.14C1542.09 582.14 1537.56 584.519 1534.73 589.277C1531.89 594.035 1530.48 599.774 1530.48 606.496C1530.48 612.953 1531.89 618.334 1534.73 622.638C1537.56 626.943 1542.05 629.095 1548.21 629.095ZM1548.6 573.248C1556.42 573.248 1563.03 575.853 1568.43 581.064C1573.83 586.275 1576.53 593.94 1576.53 604.06C1576.53 613.84 1574.15 621.921 1569.39 628.302C1564.63 634.684 1557.25 637.875 1547.24 637.875C1538.9 637.875 1532.27 635.052 1527.36 629.407C1522.45 623.762 1520 616.181 1520 606.666C1520 596.47 1522.59 588.352 1527.76 582.31C1532.93 576.268 1539.88 573.248 1548.6 573.248Z" fill-rule="evenodd"/>
<path clip-path="url(#TextBounds_2)" d="M1624.67 565.771C1624.82 561.542 1625.55 558.446 1626.88 556.482C1629.26 553.008 1633.84 551.271 1640.64 551.271C1641.28 551.271 1641.94 551.29 1642.62 551.328C1643.3 551.365 1644.08 551.422 1644.94 551.498L1644.94 560.787C1643.89 560.711 1643.12 560.664 1642.65 560.645C1642.18 560.626 1641.74 560.617 1641.32 560.617C1638.22 560.617 1636.37 561.419 1635.77 563.024C1635.16 564.629 1634.86 568.716 1634.86 575.287L1644.94 575.287L1644.94 583.33L1634.75 583.33L1634.75 635.666L1624.67 635.666L1624.67 583.33L1616.23 583.33L1616.23 575.287L1624.67 575.287L1624.67 565.771Z" fill-rule="evenodd"/>
<path clip-path="url(#TextBounds_2)" d="M1689.86 558.068L1700.17 558.068L1700.17 575.003L1709.85 575.003L1709.85 583.33L1700.17 583.33L1700.17 622.921C1700.17 625.036 1700.88 626.452 1702.32 627.169C1703.11 627.585 1704.43 627.793 1706.28 627.793C1706.77 627.793 1707.3 627.783 1707.87 627.764C1708.44 627.745 1709.1 627.698 1709.85 627.623L1709.85 635.666C1708.68 636.005 1707.46 636.251 1706.2 636.402C1704.93 636.553 1703.56 636.628 1702.09 636.628C1697.33 636.628 1694.11 635.411 1692.41 632.975C1690.71 630.54 1689.86 627.377 1689.86 623.488L1689.86 583.33L1681.64 583.33L1681.64 575.003L1689.86 575.003L1689.86 558.068Z" fill-rule="evenodd"/>
<path clip-path="url(#TextBounds_2)" d="M1758.22 575.003L1769.89 622.808L1781.72 575.003L1793.17 575.003L1805.06 622.525L1817.46 575.003L1827.66 575.003L1810.05 635.666L1799.45 635.666L1787.11 588.711L1775.15 635.666L1764.56 635.666L1747.06 575.003L1758.22 575.003Z" fill-rule="evenodd"/>
<path clip-path="url(#TextBounds_2)" d="M1878.58 619.523C1878.58 622.468 1879.65 624.791 1881.81 626.49C1883.96 628.189 1886.51 629.039 1889.45 629.039C1893.04 629.039 1896.51 628.208 1899.87 626.546C1905.54 623.79 1908.37 619.278 1908.37 613.009L1908.37 604.796C1907.12 605.589 1905.52 606.25 1903.56 606.779C1901.59 607.308 1899.67 607.685 1897.78 607.912L1891.6 608.705C1887.9 609.196 1885.13 609.97 1883.28 611.027C1880.14 612.802 1878.58 615.634 1878.58 619.523ZM1903.27 598.906C1905.61 598.604 1907.18 597.622 1907.97 595.961C1908.43 595.054 1908.65 593.752 1908.65 592.052C1908.65 588.578 1907.42 586.058 1904.94 584.491C1902.47 582.924 1898.93 582.14 1894.32 582.14C1889 582.14 1885.22 583.575 1882.99 586.445C1881.75 588.031 1880.94 590.391 1880.56 593.525L1871.04 593.525C1871.23 586.048 1873.66 580.847 1878.32 577.92C1882.99 574.994 1888.39 573.531 1894.55 573.531C1901.69 573.531 1907.48 574.89 1911.94 577.609C1916.36 580.328 1918.56 584.557 1918.56 590.296L1918.56 625.244C1918.56 626.301 1918.78 627.151 1919.22 627.793C1919.65 628.434 1920.57 628.755 1921.96 628.755C1922.42 628.755 1922.93 628.727 1923.49 628.67C1924.06 628.614 1924.66 628.529 1925.31 628.416L1925.31 635.949C1923.72 636.402 1922.51 636.685 1921.68 636.798C1920.85 636.912 1919.72 636.968 1918.28 636.968C1914.77 636.968 1912.22 635.722 1910.64 633.23C1909.8 631.908 1909.22 630.039 1908.88 627.623C1906.8 630.341 1903.82 632.701 1899.93 634.703C1896.04 636.704 1891.76 637.705 1887.07 637.705C1881.45 637.705 1876.85 635.996 1873.28 632.579C1869.71 629.161 1867.93 624.885 1867.93 619.75C1867.93 614.123 1869.68 609.762 1873.2 606.666C1876.71 603.569 1881.31 601.662 1887.02 600.945L1903.27 598.906Z" fill-rule="evenodd"/>
<path clip-path="url(#TextBounds_2)" d="M1969.03 575.003L1978.71 575.003L1978.71 585.482C1979.51 583.443 1981.45 580.96 1984.55 578.034C1987.64 575.107 1991.21 573.644 1995.25 573.644C1995.44 573.644 1995.76 573.663 1996.22 573.701C1996.67 573.739 1997.44 573.814 1998.54 573.927L1998.54 584.689C1997.93 584.576 1997.38 584.5 1996.87 584.462C1996.36 584.425 1995.8 584.406 1995.2 584.406C1990.06 584.406 1986.11 586.058 1983.36 589.362C1980.6 592.666 1979.22 596.47 1979.22 600.775L1979.22 635.666L1969.03 635.666L1969.03 575.003Z" fill-rule="evenodd"/>
<path clip-path="url(#TextBounds_2)" d="M2066.11 573.644C2070.41 573.644 2074.58 574.654 2078.62 576.674C2082.66 578.695 2085.74 581.309 2087.86 584.519C2089.9 587.578 2091.26 591.146 2091.93 595.224C2092.54 598.018 2092.84 602.474 2092.84 608.591L2048.38 608.591C2048.57 614.746 2050.02 619.683 2052.74 623.403C2055.46 627.122 2059.67 628.982 2065.37 628.982C2070.69 628.982 2074.94 627.226 2078.11 623.714C2079.93 621.675 2081.21 619.315 2081.97 616.634L2091.99 616.634C2091.73 618.862 2090.85 621.345 2089.36 624.083C2087.87 626.82 2086.2 629.058 2084.34 630.794C2081.25 633.815 2077.42 635.854 2072.85 636.912C2070.39 637.516 2067.62 637.818 2064.52 637.818C2056.97 637.818 2050.57 635.071 2045.32 629.577C2040.07 624.083 2037.45 616.389 2037.45 606.496C2037.45 596.753 2040.09 588.843 2045.38 582.763C2050.66 576.684 2057.57 573.644 2066.11 573.644ZM2082.36 600.492C2081.95 596.074 2080.98 592.543 2079.47 589.9C2076.68 584.991 2072.02 582.537 2065.48 582.537C2060.8 582.537 2056.87 584.226 2053.7 587.606C2050.53 590.986 2048.85 595.281 2048.66 600.492L2082.36 600.492Z" fill-rule="evenodd"/>
</g>
<g fill="#7b7b7b" opacity="1" stroke="none">
<path clip-path="url(#TextBounds_3)" d="M521.991 1716.3L521.991 1795.4L508.807 1795.4L508.807 1716.3L469.257 1716.3L469.257 1703.11L561.542 1703.11L561.542 1716.3L521.991 1716.3Z" fill-rule="evenodd"/>
<path clip-path="url(#TextBounds_3)" d="M515.399 1937.52L561.542 1937.52L561.542 1950.7L515.399 1950.7C502.655 1950.7 491.779 1946.2 482.77 1937.19C473.761 1928.18 469.257 1917.3 469.257 1904.56C469.257 1891.81 473.761 1880.94 482.77 1871.93C491.779 1862.92 502.655 1858.42 515.399 1858.42L561.542 1858.42L561.542 1871.6L515.399 1871.6C506.302 1871.6 498.546 1874.81 492.13 1881.22C487.296 1886.06 484.264 1891.64 483.033 1897.97L561.542 1897.97L561.542 1911.15L483.033 1911.15C484.264 1917.48 487.296 1923.04 492.13 1927.83C498.546 1934.29 506.302 1937.52 515.399 1937.52Z" fill-rule="evenodd"/>
<path clip-path="url(#TextBounds_3)" d="M482.44 2099.41L482.44 2106L469.257 2106L469.257 2099.41C469.257 2086.67 473.761 2075.79 482.77 2066.78C485.494 2064.06 488.373 2061.75 491.405 2059.86C488.373 2057.97 485.494 2055.66 482.77 2052.94C473.761 2043.93 469.257 2033.05 469.257 2020.31L469.257 2013.72L482.44 2013.72L482.44 2020.31C482.44 2029.41 485.659 2037.17 492.097 2043.61C498.535 2050.05 506.302 2053.27 515.399 2053.27C524.496 2053.27 532.263 2050.05 538.701 2043.61C545.139 2037.17 548.358 2029.41 548.358 2020.31L548.358 2013.72L561.542 2013.72L561.542 2020.31C561.542 2033.05 557.037 2043.93 548.029 2052.94C545.304 2055.66 542.425 2057.97 539.393 2059.86C542.425 2061.75 545.304 2064.06 548.029 2066.78C557.037 2075.79 561.542 2086.67 561.542 2099.41L561.542 2106L548.358 2106L548.358 2099.41C548.358 2090.31 545.139 2082.55 538.701 2076.11C532.263 2069.67 524.496 2066.45 515.399 2066.45C506.302 2066.45 498.535 2069.67 492.097 2076.11C485.659 2082.55 482.44 2090.31 482.44 2099.41Z" fill-rule="evenodd"/>
<path clip-path="url(#TextBounds_3)" d="M521.991 2182.2L521.991 2261.31L508.807 2261.31L508.807 2182.2L469.257 2182.2L469.257 2169.02L561.542 2169.02L561.542 2182.2L521.991 2182.2Z" fill-rule="evenodd"/>
</g>
<g fill="#a5a5a5" opacity="1" stroke="none">
<path clip-path="url(#TextBounds_4)" d="M1943.94 1838.21L1943.94 1906.18L1932.61 1906.18L1932.61 1838.21L1898.63 1838.21L1898.63 1826.88L1977.93 1826.88L1977.93 1838.21L1943.94 1838.21Z" fill-rule="evenodd"/>
<path clip-path="url(#TextBounds_4)" d="M1938.28 2028.3L1977.93 2028.3L1977.93 2039.62L1938.28 2039.62C1927.33 2039.62 1917.98 2035.75 1910.24 2028.01C1902.5 2020.27 1898.63 2010.93 1898.63 1999.98C1898.63 1989.02 1902.5 1979.68 1910.24 1971.94C1917.98 1964.2 1927.33 1960.33 1938.28 1960.33L1977.93 1960.33L1977.93 1971.65L1938.28 1971.65C1930.46 1971.65 1923.8 1974.41 1918.28 1979.92C1914.13 1984.08 1911.52 1988.87 1910.47 1994.31L1977.93 1994.31L1977.93 2005.64L1910.47 2005.64C1911.52 2011.08 1914.13 2015.85 1918.28 2019.97C1923.8 2025.52 1930.46 2028.3 1938.28 2028.3Z" fill-rule="evenodd"/>
<path clip-path="url(#TextBounds_4)" d="M1909.96 2167.4L1909.96 2173.07L1898.63 2173.07L1898.63 2167.4C1898.63 2156.45 1902.5 2147.11 1910.24 2139.37C1912.58 2137.03 1915.05 2135.04 1917.66 2133.42C1915.05 2131.8 1912.58 2129.81 1910.24 2127.47C1902.5 2119.73 1898.63 2110.39 1898.63 2099.44L1898.63 2093.77L1909.96 2093.77L1909.96 2099.44C1909.96 2107.25 1912.72 2113.93 1918.25 2119.46C1923.79 2124.99 1930.46 2127.76 1938.28 2127.76C1946.09 2127.76 1952.77 2124.99 1958.3 2119.46C1963.83 2113.93 1966.6 2107.25 1966.6 2099.44L1966.6 2093.77L1977.93 2093.77L1977.93 2099.44C1977.93 2110.39 1974.05 2119.73 1966.31 2127.47C1963.97 2129.81 1961.5 2131.8 1958.89 2133.42C1961.5 2135.04 1963.97 2137.03 1966.31 2139.37C1974.05 2147.11 1977.93 2156.45 1977.93 2167.4L1977.93 2173.07L1966.6 2173.07L1966.6 2167.4C1966.6 2159.59 1963.83 2152.91 1958.3 2147.38C1952.77 2141.85 1946.09 2139.08 1938.28 2139.08C1930.46 2139.08 1923.79 2141.85 1918.25 2147.38C1912.72 2152.91 1909.96 2159.59 1909.96 2167.4Z" fill-rule="evenodd"/>
<path clip-path="url(#TextBounds_4)" d="M1943.94 2238.55L1943.94 2306.51L1932.61 2306.51L1932.61 2238.55L1898.63 2238.55L1898.63 2227.22L1977.93 2227.22L1977.93 2238.55L1943.94 2238.55Z" fill-rule="evenodd"/>
</g>
<g fill="#7b7b7b" opacity="1" stroke="none">
<path clip-path="url(#TextBounds_5)" d="M2593.94-219.127L2593.94 118.373L2537.69 118.373L2537.69-219.127L2368.94-219.127L2368.94-275.377L2762.69-275.377L2762.69-219.127L2593.94-219.127Z" fill-rule="evenodd"/>
<path clip-path="url(#TextBounds_5)" d="M2565.81 724.748L2762.69 724.748L2762.69 780.998L2565.81 780.998C2511.44 780.998 2465.03 761.779 2426.59 723.341C2388.16 684.904 2368.94 638.498 2368.94 584.123C2368.94 529.748 2388.16 483.341 2426.59 444.904C2465.03 406.466 2511.44 387.248 2565.81 387.248L2762.69 387.248L2762.69 443.498L2565.81 443.498C2527 443.498 2493.91 457.185 2466.53 484.56C2445.91 505.185 2432.97 528.998 2427.72 555.998L2762.69 555.998L2762.69 612.248L2427.72 612.248C2432.97 639.248 2445.91 662.966 2466.53 683.404C2493.91 710.966 2527 724.748 2565.81 724.748Z" fill-rule="evenodd"/>
<path clip-path="url(#TextBounds_5)" d="M2425.19 1415.5L2425.19 1443.62L2368.94 1443.62L2368.94 1415.5C2368.94 1361.12 2388.16 1314.72 2426.59 1276.28C2438.22 1264.65 2450.5 1254.81 2463.44 1246.75C2450.5 1238.69 2438.22 1228.84 2426.59 1217.22C2388.16 1178.78 2368.94 1132.37 2368.94 1078L2368.94 1049.87L2425.19 1049.87L2425.19 1078C2425.19 1116.81 2438.92 1149.95 2466.39 1177.42C2493.86 1204.89 2527 1218.62 2565.81 1218.62C2604.62 1218.62 2637.76 1204.89 2665.23 1177.42C2692.7 1149.95 2706.44 1116.81 2706.44 1078L2706.44 1049.87L2762.69 1049.87L2762.69 1078C2762.69 1132.37 2743.47 1178.78 2705.03 1217.22C2693.41 1228.84 2681.12 1238.69 2668.19 1246.75C2681.12 1254.81 2693.41 1264.65 2705.03 1276.28C2743.47 1314.72 2762.69 1361.12 2762.69 1415.5L2762.69 1443.62L2706.44 1443.62L2706.44 1415.5C2706.44 1376.69 2692.7 1343.54 2665.23 1316.08C2637.76 1288.61 2604.62 1274.87 2565.81 1274.87C2527 1274.87 2493.86 1288.61 2466.39 1316.08C2438.92 1343.54 2425.19 1376.69 2425.19 1415.5Z" fill-rule="evenodd"/>
<path clip-path="url(#TextBounds_5)" d="M2593.94 1768.75L2593.94 2106.25L2537.69 2106.25L2537.69 1768.75L2368.94 1768.75L2368.94 1712.5L2762.69 1712.5L2762.69 1768.75L2593.94 1768.75Z" fill-rule="evenodd"/>
</g>
<g fill="#7b7b7b" opacity="1" stroke="none">
<path clip-path="url(#TextBounds_6)" d="M1077.04 399.674L1077.04 737.174L1020.79 737.174L1020.79 399.674L852.042 399.674L852.042 343.424L1245.79 343.424L1245.79 399.674L1077.04 399.674Z" fill-rule="evenodd"/>
<path clip-path="url(#TextBounds_6)" d="M1048.92 1343.55L1245.79 1343.55L1245.79 1399.8L1048.92 1399.8C994.542 1399.8 948.136 1380.58 909.698 1342.14C871.261 1303.71 852.042 1257.3 852.042 1202.92C852.042 1148.55 871.261 1102.14 909.698 1063.71C948.136 1025.27 994.542 1006.05 1048.92 1006.05L1245.79 1006.05L1245.79 1062.3L1048.92 1062.3C1010.1 1062.3 977.011 1075.99 949.636 1103.36C929.011 1123.99 916.073 1147.8 910.823 1174.8L1245.79 1174.8L1245.79 1231.05L910.823 1231.05C916.073 1258.05 929.011 1281.77 949.636 1302.21C977.011 1329.77 1010.1 1343.55 1048.92 1343.55Z" fill-rule="evenodd"/>
<path clip-path="url(#TextBounds_6)" d="M908.292 2034.3L908.292 2062.42L852.042 2062.42L852.042 2034.3C852.042 1979.92 871.261 1933.52 909.698 1895.08C921.323 1883.46 933.604 1873.61 946.542 1865.55C933.604 1857.49 921.323 1847.64 909.698 1836.02C871.261 1797.58 852.042 1751.17 852.042 1696.8L852.042 1668.67L908.292 1668.67L908.292 1696.8C908.292 1735.61 922.026 1768.75 949.495 1796.22C976.964 1823.69 1010.1 1837.42 1048.92 1837.42C1087.73 1837.42 1120.87 1823.69 1148.34 1796.22C1175.81 1768.75 1189.54 1735.61 1189.54 1696.8L1189.54 1668.67L1245.79 1668.67L1245.79 1696.8C1245.79 1751.17 1226.57 1797.58 1188.14 1836.02C1176.51 1847.64 1164.23 1857.49 1151.29 1865.55C1164.23 1873.61 1176.51 1883.46 1188.14 1895.08C1226.57 1933.52 1245.79 1979.92 1245.79 2034.3L1245.79 2062.42L1189.54 2062.42L1189.54 2034.3C1189.54 1995.49 1175.81 1962.35 1148.34 1934.88C1120.87 1907.41 1087.73 1893.67 1048.92 1893.67C1010.1 1893.67 976.964 1907.41 949.495 1934.88C922.026 1962.35 908.292 1995.49 908.292 2034.3Z" fill-rule="evenodd"/>
<path clip-path="url(#TextBounds_6)" d="M1077.04 2387.55L1077.04 2725.05L1020.79 2725.05L1020.79 2387.55L852.042 2387.55L852.042 2331.3L1245.79 2331.3L1245.79 2387.55L1077.04 2387.55Z" fill-rule="evenodd"/>
</g>
<g fill="#848899" opacity="1" stroke="none">
<path clip-path="url(#TextBounds_7)" d="M283.312 466.949L468.907 466.949L468.907 519.976L283.312 519.976C232.052 519.976 188.304 501.858 152.069 465.623C115.834 429.387 97.716 385.64 97.716 334.38C97.716 283.12 115.834 239.373 152.069 203.138C188.304 166.902 232.052 148.784 283.312 148.784L468.907 148.784L468.907 201.812L283.312 201.812C246.723 201.812 215.525 214.715 189.718 240.522C170.275 259.965 158.079 282.413 153.13 307.867L468.907 307.867L468.907 360.894L153.13 360.894C158.079 386.347 170.275 408.707 189.718 427.973C215.525 453.957 246.723 466.949 283.312 466.949Z" fill-rule="evenodd"/>
<path clip-path="url(#TextBounds_7)" d="M574.962 334.38L574.962 519.976L521.935 519.976L521.935 334.38C521.935 283.12 540.052 239.373 576.288 203.138C612.523 166.902 656.271 148.784 707.53 148.784C758.79 148.784 802.538 166.902 838.773 203.138C875.008 239.373 893.126 283.12 893.126 334.38L893.126 519.976L840.099 519.976L840.099 334.38C840.099 297.791 827.151 266.549 801.256 240.654C775.361 214.759 744.119 201.812 707.53 201.812C670.942 201.812 639.7 214.759 613.805 240.654C587.91 266.549 574.962 297.791 574.962 334.38Z" fill-rule="evenodd"/>
<path clip-path="url(#TextBounds_7)" d="M1131.75 148.784C1183.01 148.784 1226.76 166.902 1262.99 203.138C1299.23 239.373 1317.34 283.12 1317.34 334.38C1317.34 385.64 1299.23 429.387 1262.99 465.623C1226.76 501.858 1183.01 519.976 1131.75 519.976C1080.49 519.976 1036.74 501.858 1000.51 465.623C964.271 429.387 946.153 385.64 946.153 334.38C946.153 283.12 964.271 239.373 1000.51 203.138C1036.74 166.902 1080.49 148.784 1131.75 148.784ZM1131.75 201.812C1095.16 201.812 1063.92 214.759 1038.02 240.654C1012.13 266.549 999.181 297.791 999.181 334.38C999.181 370.969 1012.13 402.211 1038.02 428.106C1063.92 454.001 1095.16 466.949 1131.75 466.949C1168.34 466.949 1199.58 454.001 1225.48 428.106C1251.37 402.211 1264.32 370.969 1264.32 334.38C1264.32 297.791 1251.37 266.549 1225.48 240.654C1199.58 214.759 1168.34 201.812 1131.75 201.812Z" fill-rule="evenodd"/>
<path clip-path="url(#TextBounds_7)" d="M1476.43 148.784L1741.56 148.784L1741.56 201.812L1476.43 201.812C1461.76 201.812 1449.25 206.982 1438.91 217.322C1428.57 227.663 1423.4 240.168 1423.4 254.839C1423.4 269.51 1428.57 282.016 1438.91 292.356C1449.25 302.696 1461.76 307.867 1476.43 307.867L1635.51 307.867C1664.85 307.867 1689.86 318.207 1710.54 338.888C1731.22 359.568 1741.56 384.579 1741.56 413.921C1741.56 443.263 1731.22 468.274 1710.54 488.955C1689.86 509.636 1664.85 519.976 1635.51 519.976L1370.37 519.976L1370.37 466.949L1635.51 466.949C1650.18 466.949 1662.69 461.778 1673.03 451.438C1683.37 441.098 1688.54 428.592 1688.54 413.921C1688.54 399.25 1683.37 386.745 1673.03 376.404C1662.69 366.064 1650.18 360.894 1635.51 360.894L1476.43 360.894C1447.09 360.894 1422.07 350.554 1401.39 329.873C1380.71 309.192 1370.37 284.181 1370.37 254.839C1370.37 225.497 1380.71 200.486 1401.39 179.805C1422.07 159.125 1447.09 148.784 1476.43 148.784Z" fill-rule="evenodd"/>
<path clip-path="url(#TextBounds_7)" d="M1980.19 148.784C2031.45 148.784 2075.19 166.902 2111.43 203.138C2147.66 239.373 2165.78 283.12 2165.78 334.38C2165.78 385.64 2147.66 429.387 2111.43 465.623C2075.19 501.858 2031.45 519.976 1980.19 519.976C1928.93 519.976 1885.18 501.858 1848.94 465.623C1812.71 429.387 1794.59 385.64 1794.59 334.38C1794.59 283.12 1812.71 239.373 1848.94 203.138C1885.18 166.902 1928.93 148.784 1980.19 148.784ZM1980.19 201.812C1943.6 201.812 1912.36 214.759 1886.46 240.654C1860.57 266.549 1847.62 297.791 1847.62 334.38C1847.62 370.969 1860.57 402.211 1886.46 428.106C1912.36 454.001 1943.6 466.949 1980.19 466.949C2016.78 466.949 2048.02 454.001 2073.91 428.106C2099.81 402.211 2112.76 370.969 2112.76 334.38C2112.76 297.791 2099.81 266.549 2073.91 240.654C2048.02 214.759 2016.78 201.812 1980.19 201.812Z" fill-rule="evenodd"/>
</g>
</g>
</svg>
