<?xml version="1.0" encoding="UTF-8" standalone="no"?>
<!DOCTYPE svg PUBLIC "-//W3C//DTD SVG 1.1//EN" "http://www.w3.org/Graphics/SVG/1.1/DTD/svg11.dtd"
[
<!ATTLIST g
  xmlns:vectornator CDATA #FIXED "http://vectornator.io"
  vectornator:layerName CDATA #IMPLIED >
<!ATTLIST g
  xmlns:vectornator CDATA #FIXED "http://vectornator.io"
  vectornator:mask CDATA #IMPLIED >
<!ATTLIST text
  xmlns:vectornator CDATA #FIXED "http://vectornator.io"
  vectornator:width CDATA #IMPLIED >

<!ATTLIST path
  xmlns:vectornator CDATA #FIXED "http://vectornator.io"
  vectornator:blendMode CDATA #IMPLIED >
<!ATTLIST path
  xmlns:vectornator CDATA #FIXED "http://vectornator.io"
  vectornator:shadowColor CDATA #IMPLIED >
<!ATTLIST path
  xmlns:vectornator CDATA #FIXED "http://vectornator.io"
  vectornator:shadowOpacity CDATA #IMPLIED >
<!ATTLIST path
  xmlns:vectornator CDATA #FIXED "http://vectornator.io"
  vectornator:shadowRadius CDATA #IMPLIED >
<!ATTLIST path
  xmlns:vectornator CDATA #FIXED "http://vectornator.io"
  vectornator:shadowOffset CDATA #IMPLIED >
<!ATTLIST path
  xmlns:vectornator CDATA #FIXED "http://vectornator.io"
  vectornator:shadowAngle CDATA #IMPLIED >

<!ATTLIST image
  xmlns:vectornator CDATA #FIXED "http://vectornator.io"
  vectornator:blendMode CDATA #IMPLIED >
<!ATTLIST image
  xmlns:vectornator CDATA #FIXED "http://vectornator.io"
  vectornator:shadowColor CDATA #IMPLIED >
<!ATTLIST image
  xmlns:vectornator CDATA #FIXED "http://vectornator.io"
  vectornator:shadowOpacity CDATA #IMPLIED >
<!ATTLIST image
  xmlns:vectornator CDATA #FIXED "http://vectornator.io"
  vectornator:shadowRadius CDATA #IMPLIED >
<!ATTLIST image
  xmlns:vectornator CDATA #FIXED "http://vectornator.io"
  vectornator:shadowOffset CDATA #IMPLIED >
<!ATTLIST image
  xmlns:vectornator CDATA #FIXED "http://vectornator.io"
  vectornator:shadowAngle CDATA #IMPLIED >

<!ATTLIST g
  xmlns:vectornator CDATA #FIXED "http://vectornator.io"
  vectornator:blendMode CDATA #IMPLIED >
<!ATTLIST g
  xmlns:vectornator CDATA #FIXED "http://vectornator.io"
  vectornator:shadowColor CDATA #IMPLIED >
<!ATTLIST g
  xmlns:vectornator CDATA #FIXED "http://vectornator.io"
  vectornator:shadowOpacity CDATA #IMPLIED >
<!ATTLIST g
  xmlns:vectornator CDATA #FIXED "http://vectornator.io"
  vectornator:shadowRadius CDATA #IMPLIED >
<!ATTLIST g
  xmlns:vectornator CDATA #FIXED "http://vectornator.io"
  vectornator:shadowOffset CDATA #IMPLIED >
<!ATTLIST g
  xmlns:vectornator CDATA #FIXED "http://vectornator.io"
  vectornator:shadowAngle CDATA #IMPLIED >

<!ENTITY % SVG.filter.extra.content  "| feDropShadow" >
<!ELEMENT feDropShadow EMPTY>
<!ATTLIST feDropShadow
  xmlns:svg CDATA #FIXED "http://www.w3.org/Graphics/SVG/1.1/DTD/svg11.dtd"
  dx CDATA #IMPLIED>
<!ATTLIST feDropShadow
  xmlns:svg CDATA #FIXED "http://www.w3.org/Graphics/SVG/1.1/DTD/svg11.dtd"
  dy CDATA #IMPLIED>
<!ATTLIST feDropShadow
  xmlns:svg CDATA #FIXED "http://www.w3.org/Graphics/SVG/1.1/DTD/svg11.dtd"
  stdDeviation CDATA #IMPLIED>
<!ATTLIST feDropShadow
  xmlns:svg CDATA #FIXED "http://www.w3.org/Graphics/SVG/1.1/DTD/svg11.dtd"
  flood-opacity CDATA #IMPLIED>
<!ATTLIST feDropShadow
  xmlns:svg CDATA #FIXED "http://www.w3.org/Graphics/SVG/1.1/DTD/svg11.dtd"
  in CDATA #IMPLIED>
<!ATTLIST feDropShadow
  xmlns:svg CDATA #FIXED "http://www.w3.org/Graphics/SVG/1.1/DTD/svg11.dtd"
  result CDATA #IMPLIED>
<!ATTLIST feDropShadow
  xmlns:svg CDATA #FIXED "http://www.w3.org/Graphics/SVG/1.1/DTD/svg11.dtd"
  flood-color CDATA #IMPLIED>
]
>
<!-- Created with Vectornator (http://vectornator.io/) -->
<svg height="100%" stroke-miterlimit="10" style="fill-rule:nonzero;clip-rule:evenodd;stroke-linecap:round;stroke-linejoin:round;" version="1.1" viewBox="0 0 2310.53 708.75" width="100%" xml:space="preserve" xmlns="http://www.w3.org/2000/svg" xmlns:vectornator="http://vectornator.io" xmlns:xlink="http://www.w3.org/1999/xlink">
<defs>
<clipPath id="TextBounds">
<rect height="707.894" width="2253.67" x="319.661" y="1238.44"/>
</clipPath>
<clipPath id="TextBounds_2">
<rect height="225.267" width="2270.68" x="-11.2312" y="533.203"/>
</clipPath>
<clipPath id="TextBounds_3">
<rect height="524.129" width="2253.89" x="31.3169" y="65.0013"/>
</clipPath>
</defs>
<g id="Layer-1" vectornator:layerName="Layer 1">
<g fill="#7b7b7b" opacity="1" stroke="none"/>
<g fill="#d8d8d8" opacity="1" stroke="none">
<path clip-path="url(#TextBounds_2)" d="M211.759 577.904C216.064 577.904 220.236 578.914 224.277 580.934C228.317 582.954 231.395 585.569 233.509 588.779C235.548 591.837 236.908 595.406 237.587 599.484C238.191 602.278 238.494 606.734 238.494 612.851L194.031 612.851C194.219 619.006 195.673 623.943 198.392 627.663C201.111 631.382 205.321 633.242 211.023 633.242C216.347 633.242 220.595 631.486 223.767 627.974C225.58 625.935 226.863 623.575 227.619 620.894L237.644 620.894C237.38 623.122 236.502 625.605 235.01 628.342C233.519 631.08 231.848 633.317 229.997 635.054C226.901 638.075 223.068 640.114 218.499 641.171C216.045 641.776 213.27 642.078 210.173 642.078C202.621 642.078 196.221 639.331 190.972 633.837C185.723 628.342 183.099 620.649 183.099 610.755C183.099 601.013 185.742 593.102 191.029 587.023C196.315 580.944 203.225 577.904 211.759 577.904ZM228.015 604.752C227.6 600.334 226.637 596.803 225.126 594.16C222.332 589.251 217.669 586.796 211.136 586.796C206.454 586.796 202.527 588.486 199.355 591.866C196.183 595.245 194.503 599.541 194.314 604.752L228.015 604.752Z" fill-rule="evenodd"/>
<path clip-path="url(#TextBounds_2)" d="M280.763 579.263L290.449 579.263L290.449 587.873C293.319 584.323 296.358 581.774 299.568 580.226C302.778 578.678 306.346 577.904 310.273 577.904C318.882 577.904 324.697 580.906 327.718 586.91C329.38 590.195 330.21 594.896 330.21 601.013L330.21 639.925L319.845 639.925L319.845 601.693C319.845 597.992 319.298 595.009 318.203 592.744C316.39 588.968 313.105 587.08 308.347 587.08C305.931 587.08 303.948 587.325 302.4 587.816C299.606 588.647 297.151 590.308 295.037 592.8C293.337 594.802 292.233 596.869 291.723 599.003C291.213 601.136 290.959 604.185 290.959 608.15L290.959 639.925L280.763 639.925L280.763 579.263Z" fill-rule="evenodd"/>
<path clip-path="url(#TextBounds_2)" d="M396.439 578.187C401.197 578.187 405.351 579.358 408.9 581.699C410.826 583.02 412.789 584.946 414.791 587.476L414.791 579.83L424.193 579.83L424.193 634.998C424.193 642.701 423.06 648.78 420.795 653.236C416.565 661.468 408.579 665.584 396.836 665.584C390.303 665.584 384.809 664.12 380.353 661.194C375.897 658.267 373.405 653.689 372.877 647.459L383.242 647.459C383.733 650.177 384.715 652.273 386.187 653.746C388.491 656.011 392.116 657.144 397.062 657.144C404.879 657.144 409.995 654.388 412.412 648.875C413.847 645.627 414.507 639.831 414.394 631.486C412.355 634.582 409.901 636.886 407.031 638.396C404.161 639.906 400.366 640.662 395.646 640.662C389.076 640.662 383.327 638.33 378.399 633.667C373.471 629.003 371.007 621.291 371.007 610.529C371.007 600.371 373.49 592.442 378.456 586.74C383.421 581.038 389.416 578.187 396.439 578.187ZM414.791 609.339C414.791 601.825 413.243 596.255 410.146 592.63C407.05 589.005 403.104 587.193 398.308 587.193C391.134 587.193 386.225 590.554 383.582 597.275C382.185 600.862 381.486 605.563 381.486 611.378C381.486 618.213 382.874 623.415 385.649 626.983C388.424 630.551 392.153 632.336 396.836 632.336C404.161 632.336 409.315 629.031 412.298 622.423C413.96 618.685 414.791 614.324 414.791 609.339Z" fill-rule="evenodd"/>
<path clip-path="url(#TextBounds_2)" d="M469.295 579.546L479.66 579.546L479.66 639.925L469.295 639.925L469.295 579.546ZM469.295 556.72L479.66 556.72L479.66 568.275L469.295 568.275L469.295 556.72Z" fill-rule="evenodd"/>
<path clip-path="url(#TextBounds_2)" d="M524.818 579.263L534.504 579.263L534.504 587.873C537.374 584.323 540.413 581.774 543.623 580.226C546.833 578.678 550.401 577.904 554.328 577.904C562.937 577.904 568.753 580.906 571.773 586.91C573.435 590.195 574.266 594.896 574.266 601.013L574.266 639.925L563.9 639.925L563.9 601.693C563.9 597.992 563.353 595.009 562.258 592.744C560.445 588.968 557.16 587.08 552.402 587.08C549.986 587.08 548.003 587.325 546.455 587.816C543.661 588.647 541.206 590.308 539.092 592.8C537.392 594.802 536.288 596.869 535.778 599.003C535.268 601.136 535.014 604.185 535.014 608.15L535.014 639.925L524.818 639.925L524.818 579.263Z" fill-rule="evenodd"/>
<path clip-path="url(#TextBounds_2)" d="M644.346 577.904C648.65 577.904 652.823 578.914 656.863 580.934C660.904 582.954 663.981 585.569 666.096 588.779C668.135 591.837 669.494 595.406 670.174 599.484C670.778 602.278 671.08 606.734 671.08 612.851L626.617 612.851C626.806 619.006 628.26 623.943 630.979 627.663C633.697 631.382 637.908 633.242 643.609 633.242C648.934 633.242 653.182 631.486 656.354 627.974C658.166 625.935 659.45 623.575 660.205 620.894L670.23 620.894C669.966 623.122 669.088 625.605 667.597 628.342C666.105 631.08 664.434 633.317 662.584 635.054C659.488 638.075 655.655 640.114 651.086 641.171C648.632 641.776 645.856 642.078 642.76 642.078C635.208 642.078 628.807 639.331 623.559 633.837C618.31 628.342 615.686 620.649 615.686 610.755C615.686 601.013 618.329 593.102 623.615 587.023C628.902 580.944 635.812 577.904 644.346 577.904ZM660.602 604.752C660.186 600.334 659.223 596.803 657.713 594.16C654.919 589.251 650.255 586.796 643.723 586.796C639.04 586.796 635.113 588.486 631.941 591.866C628.77 595.245 627.089 599.541 626.9 604.752L660.602 604.752Z" fill-rule="evenodd"/>
<path clip-path="url(#TextBounds_2)" d="M738.611 577.904C742.916 577.904 747.089 578.914 751.129 580.934C755.169 582.954 758.247 585.569 760.361 588.779C762.401 591.837 763.76 595.406 764.44 599.484C765.044 602.278 765.346 606.734 765.346 612.851L720.883 612.851C721.072 619.006 722.526 623.943 725.244 627.663C727.963 631.382 732.173 633.242 737.875 633.242C743.199 633.242 747.447 631.486 750.619 627.974C752.432 625.935 753.716 623.575 754.471 620.894L764.496 620.894C764.232 623.122 763.354 625.605 761.862 628.342C760.371 631.08 758.7 633.317 756.85 635.054C753.753 638.075 749.921 640.114 745.352 641.171C742.897 641.776 740.122 642.078 737.026 642.078C729.473 642.078 723.073 639.331 717.824 633.837C712.576 628.342 709.951 620.649 709.951 610.755C709.951 601.013 712.595 593.102 717.881 587.023C723.167 580.944 730.078 577.904 738.611 577.904ZM754.867 604.752C754.452 600.334 753.489 596.803 751.979 594.16C749.184 589.251 744.521 586.796 737.988 586.796C733.306 586.796 729.379 588.486 726.207 591.866C723.035 595.245 721.355 599.541 721.166 604.752L754.867 604.752Z" fill-rule="evenodd"/>
<path clip-path="url(#TextBounds_2)" d="M807.899 579.263L817.584 579.263L817.584 589.742C818.377 587.703 820.322 585.22 823.418 582.294C826.515 579.367 830.083 577.904 834.123 577.904C834.312 577.904 834.633 577.923 835.086 577.961C835.539 577.998 836.313 578.074 837.408 578.187L837.408 588.949C836.804 588.836 836.247 588.76 835.738 588.722C835.228 588.684 834.671 588.666 834.067 588.666C828.931 588.666 824.985 590.318 822.229 593.622C819.472 596.926 818.094 600.73 818.094 605.035L818.094 639.925L807.899 639.925L807.899 579.263Z" fill-rule="evenodd"/>
<path clip-path="url(#TextBounds_2)" d="M875.996 579.546L886.362 579.546L886.362 639.925L875.996 639.925L875.996 579.546ZM875.996 556.72L886.362 556.72L886.362 568.275L875.996 568.275L875.996 556.72Z" fill-rule="evenodd"/>
<path clip-path="url(#TextBounds_2)" d="M931.52 579.263L941.206 579.263L941.206 587.873C944.075 584.323 947.115 581.774 950.325 580.226C953.534 578.678 957.103 577.904 961.03 577.904C969.639 577.904 975.454 580.906 978.475 586.91C980.137 590.195 980.967 594.896 980.967 601.013L980.967 639.925L970.602 639.925L970.602 601.693C970.602 597.992 970.055 595.009 968.959 592.744C967.147 588.968 963.862 587.08 959.104 587.08C956.687 587.08 954.705 587.325 953.157 587.816C950.362 588.647 947.908 590.308 945.793 592.8C944.094 594.802 942.99 596.869 942.48 599.003C941.97 601.136 941.715 604.185 941.715 608.15L941.715 639.925L931.52 639.925L931.52 579.263Z" fill-rule="evenodd"/>
<path clip-path="url(#TextBounds_2)" d="M1047.2 578.187C1051.95 578.187 1056.11 579.358 1059.66 581.699C1061.58 583.02 1063.55 584.946 1065.55 587.476L1065.55 579.83L1074.95 579.83L1074.95 634.998C1074.95 642.701 1073.82 648.78 1071.55 653.236C1067.32 661.468 1059.34 665.584 1047.59 665.584C1041.06 665.584 1035.57 664.12 1031.11 661.194C1026.65 658.267 1024.16 653.689 1023.63 647.459L1034 647.459C1034.49 650.177 1035.47 652.273 1036.94 653.746C1039.25 656.011 1042.87 657.144 1047.82 657.144C1055.64 657.144 1060.75 654.388 1063.17 648.875C1064.6 645.627 1065.26 639.831 1065.15 631.486C1063.11 634.582 1060.66 636.886 1057.79 638.396C1054.92 639.906 1051.12 640.662 1046.4 640.662C1039.83 640.662 1034.08 638.33 1029.16 633.667C1024.23 629.003 1021.76 621.291 1021.76 610.529C1021.76 600.371 1024.25 592.442 1029.21 586.74C1034.18 581.038 1040.17 578.187 1047.2 578.187ZM1065.55 609.339C1065.55 601.825 1064 596.255 1060.9 592.63C1057.81 589.005 1053.86 587.193 1049.07 587.193C1041.89 587.193 1036.98 590.554 1034.34 597.275C1032.94 600.862 1032.24 605.563 1032.24 611.378C1032.24 618.213 1033.63 623.415 1036.41 626.983C1039.18 630.551 1042.91 632.336 1047.59 632.336C1054.92 632.336 1060.07 629.031 1063.06 622.423C1064.72 618.685 1065.55 614.324 1065.55 609.339Z" fill-rule="evenodd"/>
<path clip-path="url(#TextBounds_2)" d="M1206.1 633.355C1212.86 633.355 1217.5 630.797 1220.01 625.68C1222.52 620.564 1223.78 614.871 1223.78 608.603C1223.78 602.939 1222.87 598.332 1221.06 594.783C1218.19 589.194 1213.24 586.4 1206.22 586.4C1199.99 586.4 1195.46 588.779 1192.62 593.537C1189.79 598.295 1188.38 604.034 1188.38 610.755C1188.38 617.212 1189.79 622.593 1192.62 626.898C1195.46 631.203 1199.95 633.355 1206.1 633.355ZM1206.5 577.507C1214.32 577.507 1220.93 580.113 1226.33 585.324C1231.72 590.535 1234.42 598.2 1234.42 608.32C1234.42 618.1 1232.05 626.181 1227.29 632.562C1222.53 638.944 1215.15 642.134 1205.14 642.134C1196.8 642.134 1190.17 639.312 1185.26 633.667C1180.35 628.021 1177.9 620.441 1177.9 610.925C1177.9 600.73 1180.48 592.612 1185.66 586.57C1190.83 580.528 1197.78 577.507 1206.5 577.507Z" fill-rule="evenodd"/>
<path clip-path="url(#TextBounds_2)" d="M1278.85 570.031C1279 565.802 1279.73 562.705 1281.06 560.742C1283.43 557.268 1288.02 555.531 1294.82 555.531C1295.46 555.531 1296.12 555.55 1296.8 555.587C1297.48 555.625 1298.26 555.682 1299.12 555.757L1299.12 565.046C1298.07 564.971 1297.3 564.924 1296.83 564.905C1296.36 564.886 1295.91 564.877 1295.5 564.877C1292.4 564.877 1290.55 565.679 1289.95 567.284C1289.34 568.889 1289.04 572.976 1289.04 579.546L1299.12 579.546L1299.12 587.589L1288.93 587.589L1288.93 639.925L1278.85 639.925L1278.85 587.589L1270.41 587.589L1270.41 579.546L1278.85 579.546L1278.85 570.031Z" fill-rule="evenodd"/>
<path clip-path="url(#TextBounds_2)" d="M1406.32 620.894C1406.62 624.293 1407.47 626.898 1408.87 628.711C1411.44 631.996 1415.89 633.638 1422.24 633.638C1426.01 633.638 1429.33 632.817 1432.2 631.174C1435.07 629.532 1436.51 626.992 1436.51 623.556C1436.51 620.951 1435.36 618.968 1433.05 617.609C1431.58 616.778 1428.67 615.815 1424.33 614.72L1416.23 612.681C1411.06 611.397 1407.24 609.962 1404.79 608.377C1400.41 605.62 1398.22 601.806 1398.22 596.935C1398.22 591.196 1400.29 586.551 1404.42 583.002C1408.56 579.452 1414.12 577.677 1421.1 577.677C1430.24 577.677 1436.83 580.358 1440.87 585.72C1443.4 589.119 1444.63 592.781 1444.55 596.709L1434.92 596.709C1434.73 594.405 1433.92 592.309 1432.49 590.421C1430.15 587.74 1426.09 586.4 1420.31 586.4C1416.46 586.4 1413.54 587.136 1411.56 588.609C1409.58 590.082 1408.59 592.026 1408.59 594.443C1408.59 597.086 1409.89 599.201 1412.49 600.787C1414 601.731 1416.23 602.561 1419.18 603.279L1425.92 604.921C1433.24 606.696 1438.15 608.414 1440.64 610.076C1444.61 612.681 1446.59 616.778 1446.59 622.367C1446.59 627.767 1444.54 632.43 1440.45 636.357C1436.35 640.284 1430.11 642.248 1421.73 642.248C1412.7 642.248 1406.31 640.199 1402.55 636.102C1398.8 632.005 1396.79 626.936 1396.52 620.894L1406.32 620.894Z" fill-rule="evenodd"/>
<path clip-path="url(#TextBounds_2)" d="M1512.08 633.355C1518.84 633.355 1523.48 630.797 1525.99 625.68C1528.5 620.564 1529.76 614.871 1529.76 608.603C1529.76 602.939 1528.85 598.332 1527.04 594.783C1524.17 589.194 1519.22 586.4 1512.2 586.4C1505.97 586.4 1501.43 588.779 1498.6 593.537C1495.77 598.295 1494.35 604.034 1494.35 610.755C1494.35 617.212 1495.77 622.593 1498.6 626.898C1501.43 631.203 1505.93 633.355 1512.08 633.355ZM1512.48 577.507C1520.3 577.507 1526.9 580.113 1532.3 585.324C1537.7 590.535 1540.4 598.2 1540.4 608.32C1540.4 618.1 1538.02 626.181 1533.27 632.562C1528.51 638.944 1521.13 642.134 1511.12 642.134C1502.78 642.134 1496.15 639.312 1491.24 633.667C1486.33 628.021 1483.88 620.441 1483.88 610.925C1483.88 600.73 1486.46 592.612 1491.64 586.57C1496.81 580.528 1503.76 577.507 1512.48 577.507Z" fill-rule="evenodd"/>
<path clip-path="url(#TextBounds_2)" d="M1584.83 570.031C1584.98 565.802 1585.71 562.705 1587.03 560.742C1589.41 557.268 1594 555.531 1600.8 555.531C1601.44 555.531 1602.1 555.55 1602.78 555.587C1603.46 555.625 1604.23 555.682 1605.1 555.757L1605.1 565.046C1604.05 564.971 1603.28 564.924 1602.81 564.905C1602.34 564.886 1601.89 564.877 1601.48 564.877C1598.38 564.877 1596.53 565.679 1595.93 567.284C1595.32 568.889 1595.02 572.976 1595.02 579.546L1605.1 579.546L1605.1 587.589L1594.91 587.589L1594.91 639.925L1584.83 639.925L1584.83 587.589L1576.39 587.589L1576.39 579.546L1584.83 579.546L1584.83 570.031Z" fill-rule="evenodd"/>
<path clip-path="url(#TextBounds_2)" d="M1646.3 562.328L1656.61 562.328L1656.61 579.263L1666.29 579.263L1666.29 587.589L1656.61 587.589L1656.61 627.181C1656.61 629.296 1657.32 630.712 1658.76 631.429C1659.55 631.845 1660.87 632.052 1662.72 632.052C1663.21 632.052 1663.74 632.043 1664.31 632.024C1664.87 632.005 1665.54 631.958 1666.29 631.882L1666.29 639.925C1665.12 640.265 1663.9 640.511 1662.64 640.662C1661.37 640.813 1660 640.888 1658.53 640.888C1653.77 640.888 1650.54 639.67 1648.85 637.235C1647.15 634.799 1646.3 631.637 1646.3 627.748L1646.3 587.589L1638.08 587.589L1638.08 579.263L1646.3 579.263L1646.3 562.328Z" fill-rule="evenodd"/>
<path clip-path="url(#TextBounds_2)" d="M1710.94 579.263L1722.61 627.068L1734.44 579.263L1745.89 579.263L1757.78 626.785L1770.19 579.263L1780.38 579.263L1762.77 639.925L1752.17 639.925L1739.83 592.97L1727.87 639.925L1717.28 639.925L1699.78 579.263L1710.94 579.263Z" fill-rule="evenodd"/>
<path clip-path="url(#TextBounds_2)" d="M1827.58 623.783C1827.58 626.728 1828.65 629.05 1830.81 630.75C1832.96 632.449 1835.51 633.298 1838.45 633.298C1842.04 633.298 1845.51 632.468 1848.87 630.806C1854.54 628.05 1857.37 623.537 1857.37 617.269L1857.37 609.056C1856.12 609.849 1854.52 610.51 1852.56 611.039C1850.59 611.567 1848.67 611.945 1846.78 612.171L1840.61 612.964C1836.9 613.455 1834.13 614.229 1832.28 615.287C1829.14 617.061 1827.58 619.893 1827.58 623.783ZM1852.27 603.166C1854.61 602.864 1856.18 601.882 1856.97 600.22C1857.43 599.314 1857.65 598.011 1857.65 596.312C1857.65 592.838 1856.42 590.318 1853.94 588.751C1851.47 587.184 1847.93 586.4 1843.32 586.4C1838 586.4 1834.22 587.835 1832 590.705C1830.75 592.291 1829.94 594.651 1829.56 597.785L1820.04 597.785C1820.23 590.308 1822.66 585.107 1827.32 582.18C1831.99 579.254 1837.4 577.791 1843.55 577.791C1850.69 577.791 1856.48 579.15 1860.94 581.869C1865.36 584.587 1867.57 588.817 1867.57 594.556L1867.57 629.503C1867.57 630.561 1867.78 631.41 1868.22 632.052C1868.65 632.694 1869.57 633.015 1870.96 633.015C1871.42 633.015 1871.93 632.987 1872.49 632.93C1873.06 632.874 1873.66 632.789 1874.31 632.675L1874.31 640.209C1872.72 640.662 1871.51 640.945 1870.68 641.058C1869.85 641.171 1868.72 641.228 1867.28 641.228C1863.77 641.228 1861.22 639.982 1859.64 637.49C1858.81 636.168 1858.22 634.299 1857.88 631.882C1855.8 634.601 1852.82 636.961 1848.93 638.962C1845.04 640.964 1840.76 641.964 1836.07 641.964C1830.45 641.964 1825.85 640.256 1822.28 636.838C1818.71 633.421 1816.93 629.145 1816.93 624.009C1816.93 618.383 1818.69 614.022 1822.2 610.925C1825.71 607.829 1830.32 605.922 1836.02 605.205L1852.27 603.166Z" fill-rule="evenodd"/>
<path clip-path="url(#TextBounds_2)" d="M1914.31 579.263L1924 579.263L1924 589.742C1924.79 587.703 1926.73 585.22 1929.83 582.294C1932.93 579.367 1936.49 577.904 1940.54 577.904C1940.72 577.904 1941.04 577.923 1941.5 577.961C1941.95 577.998 1942.73 578.074 1943.82 578.187L1943.82 588.949C1943.22 588.836 1942.66 588.76 1942.15 588.722C1941.64 588.684 1941.08 588.666 1940.48 588.666C1935.34 588.666 1931.4 590.318 1928.64 593.622C1925.88 596.926 1924.51 600.73 1924.51 605.035L1924.51 639.925L1914.31 639.925L1914.31 579.263Z" fill-rule="evenodd"/>
<path clip-path="url(#TextBounds_2)" d="M2007.67 577.904C2011.97 577.904 2016.15 578.914 2020.19 580.934C2024.23 582.954 2027.31 585.569 2029.42 588.779C2031.46 591.837 2032.82 595.406 2033.5 599.484C2034.1 602.278 2034.4 606.734 2034.4 612.851L1989.94 612.851C1990.13 619.006 1991.58 623.943 1994.3 627.663C1997.02 631.382 2001.23 633.242 2006.93 633.242C2012.26 633.242 2016.51 631.486 2019.68 627.974C2021.49 625.935 2022.77 623.575 2023.53 620.894L2033.55 620.894C2033.29 623.122 2032.41 625.605 2030.92 628.342C2029.43 631.08 2027.76 633.317 2025.91 635.054C2022.81 638.075 2018.98 640.114 2014.41 641.171C2011.96 641.776 2009.18 642.078 2006.08 642.078C1998.53 642.078 1992.13 639.331 1986.88 633.837C1981.63 628.342 1979.01 620.649 1979.01 610.755C1979.01 601.013 1981.65 593.102 1986.94 587.023C1992.23 580.944 1999.14 577.904 2007.67 577.904ZM2023.93 604.752C2023.51 600.334 2022.55 596.803 2021.04 594.16C2018.24 589.251 2013.58 586.796 2007.05 586.796C2002.36 586.796 1998.44 588.486 1995.27 591.866C1992.09 595.245 1990.41 599.541 1990.22 604.752L2023.93 604.752Z" fill-rule="evenodd"/>
</g>
<g fill="#848899" opacity="1" stroke="none">
<path clip-path="url(#TextBounds_3)" d="M283.312 466.949L468.907 466.949L468.907 519.976L283.312 519.976C232.052 519.976 188.304 501.858 152.069 465.623C115.834 429.387 97.716 385.64 97.716 334.38C97.716 283.12 115.834 239.373 152.069 203.138C188.304 166.902 232.052 148.784 283.312 148.784L468.907 148.784L468.907 201.812L283.312 201.812C246.723 201.812 215.525 214.715 189.718 240.522C170.275 259.965 158.079 282.413 153.13 307.867L468.907 307.867L468.907 360.894L153.13 360.894C158.079 386.347 170.275 408.707 189.718 427.973C215.525 453.957 246.723 466.949 283.312 466.949Z" fill-rule="evenodd"/>
<path clip-path="url(#TextBounds_3)" d="M574.962 334.38L574.962 519.976L521.935 519.976L521.935 334.38C521.935 283.12 540.052 239.373 576.288 203.138C612.523 166.902 656.271 148.784 707.53 148.784C758.79 148.784 802.538 166.902 838.773 203.138C875.008 239.373 893.126 283.12 893.126 334.38L893.126 519.976L840.099 519.976L840.099 334.38C840.099 297.791 827.151 266.549 801.256 240.654C775.361 214.759 744.119 201.812 707.53 201.812C670.942 201.812 639.7 214.759 613.805 240.654C587.91 266.549 574.962 297.791 574.962 334.38Z" fill-rule="evenodd"/>
<path clip-path="url(#TextBounds_3)" d="M1131.75 148.784C1183.01 148.784 1226.76 166.902 1262.99 203.138C1299.23 239.373 1317.34 283.12 1317.34 334.38C1317.34 385.64 1299.23 429.387 1262.99 465.623C1226.76 501.858 1183.01 519.976 1131.75 519.976C1080.49 519.976 1036.74 501.858 1000.51 465.623C964.271 429.387 946.153 385.64 946.153 334.38C946.153 283.12 964.271 239.373 1000.51 203.138C1036.74 166.902 1080.49 148.784 1131.75 148.784ZM1131.75 201.812C1095.16 201.812 1063.92 214.759 1038.02 240.654C1012.13 266.549 999.181 297.791 999.181 334.38C999.181 370.969 1012.13 402.211 1038.02 428.106C1063.92 454.001 1095.16 466.949 1131.75 466.949C1168.34 466.949 1199.58 454.001 1225.48 428.106C1251.37 402.211 1264.32 370.969 1264.32 334.38C1264.32 297.791 1251.37 266.549 1225.48 240.654C1199.58 214.759 1168.34 201.812 1131.75 201.812Z" fill-rule="evenodd"/>
<path clip-path="url(#TextBounds_3)" d="M1476.43 148.784L1741.56 148.784L1741.56 201.812L1476.43 201.812C1461.76 201.812 1449.25 206.982 1438.91 217.322C1428.57 227.663 1423.4 240.168 1423.4 254.839C1423.4 269.51 1428.57 282.016 1438.91 292.356C1449.25 302.696 1461.76 307.867 1476.43 307.867L1635.51 307.867C1664.85 307.867 1689.86 318.207 1710.54 338.888C1731.22 359.568 1741.56 384.579 1741.56 413.921C1741.56 443.263 1731.22 468.274 1710.54 488.955C1689.86 509.636 1664.85 519.976 1635.51 519.976L1370.37 519.976L1370.37 466.949L1635.51 466.949C1650.18 466.949 1662.69 461.778 1673.03 451.438C1683.37 441.098 1688.54 428.592 1688.54 413.921C1688.54 399.25 1683.37 386.745 1673.03 376.404C1662.69 366.064 1650.18 360.894 1635.51 360.894L1476.43 360.894C1447.09 360.894 1422.07 350.554 1401.39 329.873C1380.71 309.192 1370.37 284.181 1370.37 254.839C1370.37 225.497 1380.71 200.486 1401.39 179.805C1422.07 159.125 1447.09 148.784 1476.43 148.784Z" fill-rule="evenodd"/>
<path clip-path="url(#TextBounds_3)" d="M1980.19 148.784C2031.45 148.784 2075.19 166.902 2111.43 203.138C2147.66 239.373 2165.78 283.12 2165.78 334.38C2165.78 385.64 2147.66 429.387 2111.43 465.623C2075.19 501.858 2031.45 519.976 1980.19 519.976C1928.93 519.976 1885.18 501.858 1848.94 465.623C1812.71 429.387 1794.59 385.64 1794.59 334.38C1794.59 283.12 1812.71 239.373 1848.94 203.138C1885.18 166.902 1928.93 148.784 1980.19 148.784ZM1980.19 201.812C1943.6 201.812 1912.36 214.759 1886.46 240.654C1860.57 266.549 1847.62 297.791 1847.62 334.38C1847.62 370.969 1860.57 402.211 1886.46 428.106C1912.36 454.001 1943.6 466.949 1980.19 466.949C2016.78 466.949 2048.02 454.001 2073.91 428.106C2099.81 402.211 2112.76 370.969 2112.76 334.38C2112.76 297.791 2099.81 266.549 2073.91 240.654C2048.02 214.759 2016.78 201.812 1980.19 201.812Z" fill-rule="evenodd"/>
</g>
</g>
</svg>
